<svg width="565" height="687" viewBox="0 0 565 687" fill="none" xmlns="http://www.w3.org/2000/svg">
<path d="M41.1704 347.165C48.0676 325.301 73.7478 319.95 88.8706 333.082C108.511 350.136 127.866 367.54 147.194 384.931C156.998 393.768 159.551 409.217 153.683 422.439C148.444 434.284 135.447 441.55 122.633 440.17C116.459 439.51 111.185 437.007 106.598 432.943C87.6197 416.049 68.6135 399.14 49.6921 382.204C40.547 374.02 36.9051 358.973 41.1561 347.193L41.1704 347.165ZM119.269 434.534C121.986 435.525 124.651 435.641 127.374 435.573C137.123 435.325 147.101 428.012 150.391 418.75C154.945 405.957 150.871 394.547 144.068 388.367C135.555 380.68 126.942 373.12 118.386 365.519C107.487 355.842 96.6731 346.067 85.7032 336.461C77.7075 329.427 63.3206 329.123 55.1007 335.066C40.3898 345.707 40.9099 368.013 52.8323 378.669C69.9723 394.028 87.1123 409.387 104.38 424.635C108.925 428.642 112.998 433.577 119.284 434.506L119.269 434.534Z" fill="#D55D14"/>
<path d="M119.26 434.537C112.975 433.608 108.901 428.673 104.356 424.666C87.1027 409.461 69.9489 394.06 52.8089 378.701C40.9008 368.016 40.3664 345.738 55.0772 335.098C63.2972 329.155 77.6559 329.444 85.6798 336.493C96.6496 346.099 107.463 355.874 118.362 365.55C126.919 373.152 135.546 380.684 144.045 388.398C150.833 394.536 154.893 405.974 150.368 418.782C147.078 428.043 137.128 435.371 127.351 435.605C124.628 435.672 121.962 435.556 119.246 434.565L119.26 434.537ZM82.0455 379.72C78.003 378.763 72.8045 382.102 71.9033 386.243C70.9736 390.441 73.8047 395.523 77.6632 396.564C81.6062 397.647 86.8605 394.408 87.9169 390.239C88.9877 386.042 85.9893 380.662 82.0455 379.72ZM112.559 364.159C109.645 363.209 107.042 364.434 106.22 367.095C105.37 369.882 106.596 372.345 109.2 373.208C111.959 374.114 114.677 372.735 115.512 370.046C116.232 367.723 114.812 364.878 112.531 364.144L112.559 364.159Z" fill="#FBCB03"/>
<path d="M75.3083 386.723C76.1456 383.752 78.4254 382.398 81.3122 383.192C84.1709 383.972 85.3974 386.294 84.6021 389.322C83.7778 392.476 81.4555 393.844 78.4424 392.95C75.6686 392.142 74.4707 389.765 75.3508 386.709L75.3083 386.723Z" fill="#FBCC02"/>
<path d="M112.554 364.083C114.807 364.802 116.228 367.647 115.535 369.984C114.7 372.673 111.983 374.052 109.224 373.146C106.591 372.269 105.394 369.82 106.244 367.033C107.037 364.358 109.669 363.147 112.583 364.097L112.554 364.083ZM111.336 367.108C110.308 366.763 109.629 367.125 109.34 368.252C109.108 369.195 109.343 369.846 110.273 370.106C111.315 370.423 111.98 370.088 112.269 368.962C112.501 368.018 112.265 367.368 111.336 367.108Z" fill="#D55E14"/>
<path d="M111.337 367.109C112.266 367.369 112.53 368.034 112.27 368.963C111.98 370.09 111.315 370.424 110.273 370.107C109.33 369.805 109.08 369.183 109.34 368.253C109.629 367.126 110.309 366.764 111.337 367.109Z" fill="#FBCC02"/>
<path d="M82.0508 379.652C85.9946 380.595 88.9792 385.932 87.9223 390.171C86.8658 394.34 81.6258 397.551 77.6686 396.496C73.81 395.455 70.979 390.373 71.9087 386.175C72.838 382.048 78.0083 378.695 82.0508 379.652ZM75.3191 386.705C74.4533 389.732 75.637 392.138 78.4108 392.946C81.4239 393.84 83.7462 392.472 84.5704 389.317C85.3657 386.29 84.1392 383.968 81.2806 383.188C78.4219 382.408 76.1139 383.748 75.2767 386.719L75.3191 386.705Z" fill="#D55E14"/>
<path d="M192.577 683.866C209.01 677.083 218.867 658.964 216.038 640.622L204.999 582.63L185 579.469L164.74 576.267L144.5 573.068L124.48 569.904C128.835 597.706 133.157 625.539 137.671 653.319C141.851 679.028 168.557 693.788 192.577 683.866Z" fill="#D55E14"/>
<path d="M134.731 596.88C137.155 597.639 139.012 598.368 140.919 598.752C149.2 600.449 157.309 595.189 158.793 586.77C159.382 583.358 160.382 582.368 163.878 583.151C174.958 585.69 186.245 586.692 197.61 586.814C200.514 586.84 201.854 587.795 202.317 591.009C204.831 608.134 207.758 625.218 210.272 642.343C212.294 656.189 207.187 667.45 195.849 675.258C184.446 683.094 172.17 683.493 160.002 676.411C150.652 670.994 145.106 662.901 143.457 652.171C140.625 633.892 137.697 615.639 134.73 596.911L134.731 596.88Z" fill="#FBCC02"/>
<path d="M140.696 584.116C140.662 582.945 140.473 581.735 140.658 580.608C141.392 575.656 142.723 574.967 147.16 577.095C148.7 577.839 150.207 578.613 151.713 579.418C153.679 580.469 156.348 580.767 155.563 584.295C154.826 587.51 154.005 590.531 150.567 591.645C147.513 592.654 144.907 591.759 142.93 589.097C141.809 587.586 140.912 586.022 140.729 584.086L140.696 584.116Z" fill="#F2A80A"/>
<path d="M145.788 595.658C139.72 595.719 135.269 593.875 133.061 588.99C131.08 584.59 131.386 579.963 134.812 576.068C135.417 575.374 136.141 574.811 136.867 574.218C137.395 573.803 138.044 573.458 138.653 573.901C139.382 574.444 138.782 575.045 138.562 575.633C135.817 584.618 137.813 590.534 145.758 595.625L145.788 595.658Z" fill="#EE770A"/>
<path d="M440.66 603.036C449.416 587.548 446.054 567.183 432.506 554.49L370.492 497.586L364.723 497.652L353.907 539.704L337.511 573.131L378.587 612.768C397.779 630.443 427.859 625.669 440.66 603.036Z" fill="#D55E14"/>
<path d="M369.894 504.099C371.584 505.688 372.638 506.644 373.667 507.618C392.006 524.735 410.389 541.859 428.702 558.995C441.552 571.022 443.426 591.35 432.905 604.262C421.082 618.778 401.449 621.975 386.478 611.703C384.113 610.086 382.103 607.874 379.983 605.892C368.583 595.276 357.302 584.499 345.732 574.079C342.954 571.596 343.253 569.769 345.041 567.208C352.598 556.333 358.622 544.645 363.363 532.276C366.723 523.493 369.001 514.427 369.945 504.062L369.894 504.099ZM395.321 594.305C400.287 589.134 400.003 577.126 394.767 572.013C389.208 566.548 378.332 566.963 372.428 572.83C366.935 578.293 367.179 589.366 372.956 594.756C378.92 600.36 389.74 600.139 395.339 594.331L395.321 594.305ZM412.989 581.703C411.431 583.988 411.165 586.523 413.075 588.535C415.021 590.6 417.642 590.382 419.879 588.739C421.755 587.348 421.798 583.121 419.935 581.614C417.733 579.844 415.333 580.101 412.989 581.703Z" fill="#FBCB03"/>
<path d="M412.984 581.7C415.31 580.071 417.702 579.859 419.93 581.611C421.819 583.099 421.776 587.327 419.874 588.735C417.637 590.379 415.016 590.596 413.07 588.532C411.16 586.519 411.426 583.984 412.984 581.7Z" fill="#D55E14"/>
<path d="M395.315 594.317C389.69 600.143 378.896 600.346 372.931 594.742C367.181 589.334 366.911 578.279 372.404 572.816C378.333 566.931 389.202 566.56 394.743 571.999C399.979 577.112 400.281 589.146 395.297 594.292L395.315 594.317ZM380.336 584.474C386.21 589.949 393.234 589.421 394.68 584.172C395.625 580.738 394.457 577.474 392.1 575.043C389.681 572.578 386.515 571.137 382.82 571.799C380.223 572.269 378.691 573.766 378.193 576.464C377.488 580.076 378.829 582.872 380.362 584.456L380.336 584.474ZM374.032 576.681C370.32 583.478 371.652 589.669 377.234 593.462C381.971 596.653 388.289 595.887 391.709 591.643C384.487 593.427 374.931 588.028 374.05 576.707L374.032 576.681Z" fill="#D55E14"/>
<path d="M380.357 584.499C378.825 582.915 377.483 580.119 378.188 576.507C378.73 573.817 380.237 572.338 382.816 571.842C386.493 571.154 389.677 572.621 392.096 575.086C394.453 577.517 395.621 580.781 394.676 584.215C393.229 589.464 386.232 589.974 380.332 584.517L380.357 584.499Z" fill="#F2A80A"/>
<path d="M374.06 576.702C374.966 588.004 384.515 593.448 391.719 591.638C388.298 595.882 381.972 596.691 377.243 593.457C371.679 589.69 370.303 583.491 374.042 576.676L374.06 576.702Z" fill="#EE770A"/>
<path d="M413.656 477.003C405.574 424.494 397.111 372.028 388.805 319.57L388.835 319.604C387.231 316.456 386.744 313.082 387.213 309.569C383.563 290.015 382.24 270.047 376.936 250.723C375.688 246.203 373.551 244.196 369.924 242.269C365.038 239.676 355.786 239.033 350.147 238.737L336.501 238.737L273.32 258.211L257.501 262.115L200 272.5L145.501 276.239L100.932 276.239L87.1914 280.958C82.2813 283.038 73.1741 287.457 69.0367 290.462C66.673 292.17 64.9726 294.481 65.3562 297.407C65.7399 300.333 66.265 305.983 66.9573 310.252C77.9393 379.148 88.7606 448.099 99.6465 517.022C99.8358 518.232 100.134 519.164 101.31 520.236C108.127 526.374 113.994 535.557 108.055 545.227C107.745 545.716 107.118 546.22 107.651 546.911C111.908 552.473 115.467 558.692 120.949 563.18C123.22 565.037 124.055 567.197 124.481 569.904C124.481 569.904 137.5 574.5 144.16 576.526C150.82 578.552 151.677 581.296 163.838 583.148C176 585 186.205 586.689 197.57 586.811L212.189 586.914C229.243 586.955 246.186 584.905 263.046 582.63C283.468 579.878 303.648 575.724 323.551 570.229L338.975 565.225C351.625 561.308 363.6 555.808 374.918 548.979C382.973 544.158 390.349 538.416 397.476 530.799L404.835 520.571C413.336 507.214 416.007 492.414 413.656 477.003Z" fill="#D55E14"/>
<path d="M390.72 371.134C396.197 405.85 401.546 440.59 407.245 475.286C411.459 500.965 402.322 521.018 382.265 536.675C367.181 548.456 349.749 555.629 331.754 561.477C304.634 570.289 276.65 575.077 248.458 578.432C221.346 581.654 194.078 583.036 166.968 577.793C153.084 575.108 139.893 570.657 128.507 561.912C123.557 558.114 119.342 553.566 116.118 548.186C115.713 547.47 114.359 546.798 115.996 545.684C122.355 541.279 121.21 534.807 119.721 528.854C118.158 522.518 114.743 517.159 107.593 515.584C106.281 515.294 105.497 514.59 105.412 513.196C105.334 512.276 105.128 511.38 104.987 510.457C94.4082 443.509 83.8311 376.529 73.2523 309.58C72.3956 304.229 72.394 304.261 77.9364 305.183C90.9013 307.315 103.935 306.924 116.976 306.408C144.133 305.336 171.11 302.264 198.081 298.719C213.953 296.613 229.715 294.186 245.489 291.538C258.745 289.327 271.991 286.704 285.095 283.759C310.92 277.974 336.801 272.318 361.403 262.141C364.211 260.994 366.996 259.687 369.484 258.017C372.367 256.051 373 257.222 373.205 259.949C373.276 260.995 373.505 262.049 373.673 263.069C379.366 299.091 385.059 335.113 390.751 371.135L390.72 371.134ZM167.496 499.614C165.151 488.91 156.472 483.938 146.718 485.038C137.441 486.068 130.23 496.492 131.74 505.637C133.248 514.844 143.228 522.095 152.434 520.619C161.799 519.12 168.988 509.105 167.527 499.616L167.496 499.614ZM362.483 391.606C361.185 383.831 352.035 377.603 344 379.045C336.285 380.41 329.794 389.135 331.454 396.645C333.626 406.424 340.55 410.514 349.365 409.87C356.752 409.342 363.738 399 362.516 391.576L362.483 391.606ZM120.146 332.095C119.178 325.254 111.997 320.044 105.145 321.202C98.4844 322.337 93.3417 329.459 94.4174 336.053C95.4915 342.68 102.611 347.854 109.236 346.811C115.861 345.769 121.096 338.683 120.148 332.064L120.146 332.095ZM326.414 375.881C332.504 374.811 337.086 368.133 335.954 362.01C334.918 356.459 328.12 351.776 322.542 352.747C316.739 353.769 311.898 360.559 312.926 366.267C313.976 372.134 320.645 376.874 326.414 375.881ZM127.69 482.272C127.034 477.31 121.136 472.926 116.106 473.673C111.267 474.399 107.061 479.927 107.556 484.944C108.054 489.897 113.823 494.337 118.971 493.754C123.927 493.193 128.341 487.328 127.69 482.272ZM386.949 405.712C386.191 401.503 381.502 398.162 377.329 398.828C372.966 399.515 369.515 404.483 370.396 408.761C371.281 412.977 376.038 416.227 380.186 415.434C384.398 414.612 387.71 409.89 386.981 405.714L386.949 405.712ZM177.783 493.773C173.99 494.427 170.884 498.844 171.541 502.574C172.195 506.367 176.613 509.473 180.343 508.816C184.136 508.162 187.24 503.776 186.584 500.014C185.928 496.253 181.513 493.115 177.783 493.773ZM133.904 385.407C133.353 382.662 130.393 380.675 127.618 381.193C125.035 381.657 122.902 384.988 123.713 387.589C124.576 390.414 126.541 392.096 129.662 391.597C132.562 391.117 134.486 388.154 133.904 385.407Z" fill="#FBCC02"/>
<path d="M227.13 288.172C214.135 290.239 204.916 291.967 195.602 293.089C176.783 295.388 157.963 297.687 139.005 299.031C121.155 300.306 103.321 301.267 85.4097 300.107C81.7275 299.851 78.0587 299.343 74.5189 298.178C73.4628 297.838 71.6888 297.935 71.7631 296.517C71.8093 295.635 73.0956 294.597 74.0719 294.048C79.3466 291.04 85.0475 288.938 90.5195 286.382C100.104 281.894 110.121 282.419 120.216 282.663C134.286 282.99 148.338 282.463 162.373 281.651C184.644 280.386 206.808 278.168 228.722 274.073C246.425 270.768 264.086 267.082 281.465 262.118C298.171 257.371 314.71 252.174 331.033 246.27C336.409 244.34 342.724 244.987 348.379 244.968C354.729 244.953 360.538 246.205 366.709 247.792C367.924 248.108 369.851 248.114 370.067 249.421C370.304 250.918 368.56 251.648 367.322 252.372C360.935 256.112 354.067 258.785 347.057 261.165C333.838 265.684 320.387 269.212 306.825 272.449C292.206 275.947 277.464 278.807 262.801 281.955C249.736 284.745 236.488 286.199 227.1 288.139L227.13 288.172Z" fill="#E1B60A"/>
<path d="M118.946 531.524C118.971 534.653 119.226 537.635 118.313 540.588C117.817 542.204 116.899 543.451 115.351 544.065C114.028 544.596 112.317 545.296 111.19 544.51C109.817 543.585 111.189 542.11 111.532 540.99C113.905 533.092 109.561 527.368 105.348 521.588C104.464 520.373 102.157 519.179 102.883 517.985C103.989 516.179 106.547 516.787 108.347 517.387C115.049 519.696 117.011 525.643 118.946 531.524Z" fill="#D55D14"/>
<path d="M167.552 499.578C169.047 509.037 161.824 519.082 152.459 520.581C143.285 522.059 133.273 514.806 131.766 505.599C130.287 496.456 137.464 486.061 146.743 485C156.498 483.9 165.176 488.872 167.521 499.576L167.552 499.578ZM162.833 499.836C162.735 499.294 162.688 498.375 162.451 497.478C161.294 493.628 157.597 490.654 154.148 490.758C150.163 490.865 147.322 493.243 146.386 497.837C145.616 501.682 146.179 505.407 148.599 508.66C150.547 511.258 152.965 512.743 156.373 512.195C159.781 511.647 161.538 509.465 162.677 506.429C163.449 504.353 163.428 502.331 162.831 499.867L162.833 499.836ZM145.676 489.682C140.551 491.056 137.664 494.316 136.482 498.771C135.176 503.819 135.959 508.756 139.957 512.63C143.474 516.036 147.088 516.983 150.253 515.665C140.898 507.341 139.785 501.439 145.676 489.682Z" fill="#D55E14"/>
<path d="M362.559 391.534C363.78 398.958 356.795 409.3 349.408 409.829C340.595 410.441 333.67 406.35 331.496 396.603C329.837 389.093 336.359 380.37 344.043 379.004C352.109 377.563 361.26 383.759 362.525 391.564L362.559 391.534ZM343.595 392.973C344.797 400.774 350.746 404.782 355.051 401.596C358.008 399.414 359.169 395.937 358.593 392.464C358.042 389.118 356.5 386.005 353.014 384.401C350.731 383.366 348.788 383.674 346.839 385.309C343.998 387.687 343.365 390.718 343.563 392.971L343.595 392.973ZM343.425 382.951C336.211 386.205 333.511 391.907 335.641 398.273C337.388 403.513 341.973 406.438 346.522 405.224C340.345 400.13 337.898 391.379 343.427 382.92L343.425 382.951Z" fill="#D55E14"/>
<path d="M120.185 332.09C121.131 338.741 115.897 345.795 109.273 346.838C102.648 347.88 95.5284 342.706 94.4543 336.08C93.3802 329.454 98.5229 322.332 105.182 321.228C112.034 320.071 119.215 325.28 120.183 332.122L120.185 332.09ZM117.121 332.688C116.56 328.331 113.139 324.898 109.77 325.29C106.657 325.633 104.027 330.012 104.577 333.989C105.13 337.903 108.713 341.249 112.015 340.917C115.127 340.606 117.644 336.569 117.121 332.688ZM103.051 325.728C98.4147 328.012 96.375 332.58 97.7569 336.948C99.1091 341.283 103.324 344.031 107.805 343.507C102.577 339.001 100.618 336.592 103.051 325.728Z" fill="#D55E14"/>
<path d="M326.449 375.88C320.68 376.872 314.011 372.132 312.96 366.266C311.932 360.558 316.774 353.768 322.576 352.745C328.154 351.774 334.952 356.458 335.988 362.008C337.12 368.132 332.538 374.809 326.449 375.88ZM323.288 357.236C318.827 357.982 316.717 360.872 317.398 365.361C318.1 370.041 321.083 372.187 325.735 371.42C330.355 370.652 332.408 367.632 331.55 362.913C330.768 358.544 327.781 356.493 323.256 357.235L323.288 357.236Z" fill="#D55E14"/>
<path d="M127.76 482.232C128.441 487.322 123.998 493.153 119.041 493.715C113.894 494.298 108.125 489.858 107.626 484.904C107.131 479.888 111.306 474.358 116.177 473.634C121.207 472.887 127.106 477.239 127.76 482.232ZM112.098 483.97C112.495 487.844 114.455 489.621 117.914 489.297C121.946 488.908 123.759 486.855 123.321 483.168C122.858 479.354 120.863 477.638 117.335 478.053C113.491 478.484 111.745 480.445 112.099 483.938L112.098 483.97Z" fill="#D55E14"/>
<path d="M387.005 405.68C387.733 409.856 384.453 414.58 380.21 415.399C376.062 416.193 371.303 412.974 370.42 408.727C369.539 404.448 372.989 399.481 377.353 398.793C381.557 398.129 386.246 401.47 386.973 405.678L387.005 405.68ZM377.851 403.147C375.457 403.621 374.338 405.079 374.71 407.625C375.104 410.362 376.687 411.488 379.428 411.031C381.977 410.596 383.035 409.104 382.663 406.558C382.271 403.789 380.653 402.725 377.851 403.147Z" fill="#D55E14"/>
<path d="M177.848 493.725C181.578 493.068 185.994 496.205 186.65 499.967C187.305 503.728 184.201 508.114 180.408 508.768C176.678 509.426 172.294 506.29 171.607 502.527C170.95 498.797 174.055 494.38 177.848 493.725ZM182.283 500.717C182.014 498.618 180.892 497.738 178.76 498.037C176.5 498.361 175.525 499.479 175.909 501.805C176.274 503.877 177.301 504.783 179.432 504.485C181.692 504.161 182.73 503.046 182.25 500.747L182.283 500.717Z" fill="#D55E14"/>
<path d="M162.835 499.833C163.433 502.296 163.453 504.319 162.681 506.395C161.543 509.43 159.786 511.613 156.378 512.16C152.969 512.708 150.552 511.223 148.603 508.626C146.184 505.372 145.622 501.616 146.391 497.802C147.293 493.238 150.134 490.86 154.153 490.723C157.601 490.62 161.299 493.593 162.455 497.444C162.726 498.311 162.771 499.261 162.837 499.801L162.835 499.833Z" fill="#F2A80A"/>
<path d="M145.654 489.649C139.763 501.406 140.877 507.276 150.231 515.631C147.033 516.98 143.452 516.002 139.935 512.596C135.968 508.724 135.153 503.786 136.46 498.737C137.608 494.312 140.497 491.021 145.654 489.649Z" fill="#EE770A"/>
<path d="M133.994 385.366C134.545 388.111 132.653 391.076 129.753 391.556C126.663 392.057 124.698 390.375 123.804 387.549C122.993 384.948 125.126 381.616 127.709 381.152C130.484 380.634 133.443 382.621 133.994 385.366Z" fill="#D55E14"/>
<path d="M343.546 392.998C343.317 390.744 343.981 387.714 346.822 385.336C348.772 383.701 350.685 383.36 352.998 384.428C356.483 386.032 358.025 389.145 358.576 392.491C359.151 395.995 357.991 399.441 355.034 401.623C350.729 404.809 344.812 400.803 343.578 393L343.546 392.998Z" fill="#FBCC02"/>
<path d="M343.383 382.953C337.854 391.413 340.301 400.164 346.478 405.257C341.961 406.474 337.378 403.517 335.598 398.307C333.469 391.909 336.168 386.208 343.381 382.985L343.383 382.953Z" fill="#D55D14"/>
<path d="M117.087 332.688C117.61 336.569 115.092 340.606 111.981 340.917C108.678 341.249 105.095 337.903 104.542 333.989C103.992 330.012 106.622 325.633 109.736 325.291C113.103 324.93 116.524 328.363 117.087 332.688Z" fill="#FBCC02"/>
<path d="M103.014 325.689C100.581 336.554 102.538 338.994 107.768 343.469C103.288 343.961 99.0735 341.213 97.7197 336.909C96.3378 332.541 98.3775 327.973 103.014 325.689Z" fill="#D55D14"/>
<path d="M323.287 357.232C327.811 356.489 330.769 358.508 331.581 362.909C332.439 367.629 330.354 370.647 325.765 371.417C321.082 372.183 318.13 370.038 317.428 365.358C316.747 360.869 318.857 357.979 323.318 357.233L323.287 357.232Z" fill="#FBCC02"/>
<path d="M112.095 483.962C111.741 480.469 113.486 478.507 117.331 478.077C120.859 477.662 122.853 479.377 123.317 483.192C123.755 486.879 121.942 488.932 117.91 489.32C114.45 489.644 112.492 487.836 112.093 483.993L112.095 483.962Z" fill="#F2A80A"/>
<path d="M377.856 403.177C380.689 402.757 382.276 403.819 382.668 406.587C383.04 409.134 381.951 410.624 379.433 411.061C376.692 411.518 375.14 410.394 374.715 407.655C374.343 405.109 375.462 403.651 377.856 403.177Z" fill="#FBCC02"/>
<path d="M182.274 500.722C182.752 503.053 181.715 504.167 179.457 504.46C177.325 504.759 176.267 503.85 175.933 501.78C175.55 499.454 176.493 498.335 178.784 498.012C180.916 497.713 182.038 498.593 182.307 500.692L182.274 500.722Z" fill="#F2A80A"/>
<path d="M329.965 252.971C311.634 259.884 292.927 265.693 273.993 270.661L273.992 270.661C248.16 277.429 221.952 282.337 195.46 285.422L195.459 285.422C155.405 290.079 115.251 290.608 75.0275 287.041L75.0241 287.04C72.3097 286.796 69.8491 286.226 67.6554 284.944C65.437 283.647 63.6958 281.742 62.2161 279.163C51.7054 260.898 44.7285 241.419 43.1269 220.267L43.1267 220.265C41.3032 195.87 47.1901 173.147 59.5599 152.185C64.5463 143.718 70.3573 135.808 77.0136 128.562C75.8052 128.433 74.6556 128.1 73.5565 127.579C71.0279 126.382 68.9912 124.29 67.1784 122.123L274.45 66.4713C278.55 59.5557 282.599 52.6078 286.653 45.6534C288.178 43.0362 289.704 40.4182 291.233 37.8006L291.238 37.7922C292.122 36.2919 293.003 34.7525 293.893 33.1967C295.964 29.5774 298.085 25.8698 300.421 22.3608L300.423 22.3571C303.986 17.0252 308.544 13.722 313.99 12.9015C319.366 12.0916 325.146 13.7728 331.071 17.424L331.078 17.4284C340.502 23.2797 343.039 35.0178 337.221 45.1151L335.055 43.8669L337.221 45.1152C328.98 59.4133 320.618 73.6393 312.229 87.8562C311.577 88.97 310.813 89.9661 310.074 90.8792C309.933 91.0526 309.796 91.2205 309.661 91.3846C316.59 95.5538 323.385 100.029 329.615 105.481C338.733 113.447 346.999 122.268 353.426 132.793C353.825 133.437 354.023 134.091 354.142 134.533C354.208 134.78 354.249 134.947 354.281 135.079C354.324 135.255 354.353 135.372 354.408 135.537L354.556 135.985L354.532 136.456L354.528 136.519L354.317 140.561L351.264 138.827M329.965 252.971C329.964 252.972 329.964 252.972 329.963 252.972L329.083 250.632L329.965 252.971ZM329.965 252.971C336.486 250.519 342.963 247.853 349.399 245.204C352.595 243.888 355.781 242.577 358.956 241.298M358.956 241.298C359.818 240.953 361.171 240.372 362.05 239.158C363.074 237.743 363.072 236.085 362.622 234.499M358.956 241.298C358.958 241.298 358.959 241.297 358.96 241.297L358.026 238.978M358.956 241.298L358.026 238.978M362.622 234.499C360.8 227.96 362.324 222.248 366.957 217.182M362.622 234.499C362.621 234.497 362.621 234.494 362.62 234.491L360.215 235.176M362.622 234.499C362.623 234.501 362.623 234.503 362.624 234.504L360.215 235.176M366.957 217.182C367.072 217.062 367.186 216.952 367.332 216.811C367.39 216.754 367.454 216.693 367.525 216.623C367.753 216.401 368.043 216.113 368.318 215.783C368.885 215.103 369.504 214.109 369.579 212.753M366.957 217.182C366.963 217.175 366.97 217.167 366.976 217.16L365.133 215.471M366.957 217.182C366.951 217.188 366.945 217.194 366.939 217.2L365.133 215.471M369.579 212.753C369.667 211.412 369.809 209.999 369.956 208.532C370.31 205.004 370.696 201.162 370.437 197.259L370.186 193.468M369.579 212.753C369.58 212.747 369.58 212.741 369.58 212.735L367.084 212.604M369.579 212.753C369.579 212.758 369.579 212.762 369.579 212.767L367.084 212.604M370.186 193.468L370.754 193.802L370.549 189.202C369.855 173.586 366.666 159.324 360.065 145.202L358.142 141.089L355.695 144.913C355.353 145.446 355.033 145.984 354.773 146.419C354.649 146.628 354.538 146.813 354.447 146.962C354.122 147.491 353.907 147.791 353.691 148.017L353.683 148.025C351.882 149.934 348.474 150.244 346.461 148.823L346.453 148.818L346.446 148.813C344.431 147.413 343.566 144.084 344.769 141.791C345.485 140.426 346.391 139.722 347.441 139.32C348.457 138.931 349.718 138.786 351.264 138.827M370.186 193.468L370.123 192.511L369.456 193.039M370.186 193.468L369.456 193.039M351.264 138.827L350.797 138.562L350.736 138.527L351.953 136.384L351.969 136.384L351.962 136.51L351.84 138.85C351.643 138.839 351.451 138.832 351.264 138.827ZM369.456 193.039L366.391 195.464C365.2 196.407 364.374 196.583 363.821 196.549C363.25 196.514 362.509 196.227 361.556 195.34M369.456 193.039L366.785 191.468C365.085 190.468 363.928 190.29 363.207 190.428C362.612 190.541 361.814 190.968 361.011 192.549M361.556 195.34L355.501 149.741C355.766 149.464 355.997 149.16 356.224 148.823C355.999 148.321 355.769 147.82 355.535 147.319L357.8 146.261L359.906 147.608C359.598 148.089 359.37 148.472 359.141 148.857C359.109 148.911 359.077 148.965 359.045 149.02C364.271 161.039 367.026 173.229 367.892 186.408C368.377 186.632 368.854 186.884 369.319 187.158L368.052 189.313L365.554 189.424C365.536 189.004 365.515 188.584 365.493 188.166C362.72 187.358 360.386 188.257 358.782 191.417M361.556 195.34C360.987 194.794 360.777 194.342 360.712 194.005C360.649 193.682 360.67 193.221 361.011 192.549M361.556 195.34C361.552 195.337 361.548 195.334 361.544 195.33L359.839 197.158M361.556 195.34C361.559 195.344 361.562 195.347 361.566 195.35L359.839 197.158M361.556 195.34L365.507 198.797C363.465 199.462 361.601 198.802 359.839 197.158M361.011 192.549C361.011 192.549 361.011 192.548 361.011 192.548L358.782 191.417M361.011 192.549L358.782 191.417M358.782 191.417C357.69 193.571 358.124 195.52 359.839 197.158M367.084 212.604C367.03 213.626 366.33 214.302 365.622 214.986C365.457 215.146 365.291 215.306 365.133 215.471M367.084 212.604L358.026 238.978M365.133 215.471C359.941 221.137 358.142 227.739 360.215 235.176M360.215 235.176C360.882 237.517 359.769 238.279 358.026 238.978M273.358 268.243C247.641 274.981 221.548 279.868 195.17 282.939L273.358 268.243ZM100.97 98.1193C102.82 100.175 103.197 102.026 101.805 104.48L70.8291 64.5114C76.2815 70.4951 81.6753 76.549 87.0684 82.6022C91.6905 87.79 96.3121 92.9772 100.97 98.1193ZM42.4127 90.2178L42.4126 90.2178L42.4127 90.2178ZM298.313 134.566L298.311 134.555C298.149 133.855 298.317 132.909 298.908 132.005C299.496 131.107 300.325 130.526 301.097 130.357C301.815 130.211 302.766 130.402 303.659 131.008C304.551 131.613 305.111 132.447 305.263 133.207C305.395 133.929 305.187 134.879 304.57 135.758C303.952 136.639 303.112 137.18 302.345 137.312L302.342 137.313C301.627 137.437 300.716 137.239 299.872 136.67C299.03 136.101 298.483 135.313 298.313 134.566ZM354.647 170.746C355.012 171.042 355.384 171.538 355.682 172.28C355.574 173.117 355.337 173.695 355.057 174.081C354.758 174.494 354.294 174.856 353.45 175.055C353.414 175.063 353.242 175.084 352.916 174.979C352.596 174.876 352.228 174.681 351.879 174.405C351.53 174.129 351.265 173.822 351.103 173.549C351.024 173.417 350.98 173.309 350.957 173.232C350.936 173.165 350.935 173.131 350.935 173.125C350.966 172.133 351.235 171.446 351.554 171.036C351.836 170.675 352.26 170.383 353.016 170.313L353.024 170.312C353.771 170.24 354.263 170.434 354.647 170.746ZM150.529 113.522L150.524 113.523C149.635 113.596 149.416 113.373 149.38 113.337L149.378 113.335C149.277 113.233 149.023 112.866 148.941 111.861C148.877 111.074 149.07 110.87 149.104 110.835L149.106 110.833C149.191 110.741 149.508 110.496 150.413 110.378C151.315 110.277 151.549 110.491 151.592 110.53L151.594 110.532C151.707 110.635 151.968 110.979 152.13 111.936C152.164 112.756 151.955 113.018 151.89 113.088C151.797 113.189 151.472 113.447 150.529 113.522Z" fill="#FBCC02" stroke="#D55E14" stroke-width="5"/>
<path d="M361.63 232.929C360.2 226.473 362.059 221.738 365.534 217.498C366.376 216.5 367.43 215.071 369.12 216.581C370.538 217.855 370.571 219.026 369.413 220.639C366.047 225.201 365.05 230.36 366.245 235.887C366.45 236.782 367.658 237.856 365.952 238.462C364.697 238.901 363.622 238.308 362.821 237.318C361.606 235.802 361.867 233.826 361.63 232.929Z" fill="#D55D14"/>
<path d="M307.719 132.738C308.287 135.768 305.862 139.242 302.77 139.775C299.871 140.255 296.576 138.029 295.876 135.118C295.18 132.112 297.514 128.571 300.581 127.91C303.583 127.278 307.121 129.674 307.719 132.738ZM303.314 133.613C303.171 132.721 302.692 132.222 301.774 132.268C300.696 132.338 300.099 132.876 300.261 134.021C300.373 134.88 300.883 135.412 301.801 135.365C302.879 135.295 303.445 134.725 303.314 133.613Z" fill="#D55E14"/>
<path d="M358.21 171.997C358.062 174.832 356.754 176.88 354.004 177.526C351.668 178.098 348.363 175.461 348.424 173.095C348.507 170.32 349.948 168.122 352.773 167.859C355.535 167.593 357.369 169.363 358.21 171.997Z" fill="#D55E14"/>
<path d="M154.605 111.671C154.776 114.428 153.346 115.806 150.713 116.016C147.89 116.247 146.615 114.664 146.435 112.064C146.222 109.495 147.679 108.213 150.096 107.897C152.895 107.539 154.205 109.06 154.605 111.671Z" fill="#D55E14"/>
<path d="M285.869 197.823C287.954 211.073 279.526 222.413 266.295 224.751C254.404 226.845 241.398 219.467 239.142 205.261C236.986 191.566 245.198 180.12 259.017 178.002C273.728 175.74 284.636 186.388 285.869 197.823Z" fill="#D55E14"/>
<path d="M258.354 218.278C255.44 217.841 252.901 216.255 250.394 214.671C245.841 211.748 245.224 209.662 247.195 204.585C249.566 198.519 257.459 194.384 263.974 195.42C274.092 197.025 277.266 204.582 277.307 210.428C277.334 214.725 274.347 216.874 270.529 218.001C266.551 219.182 262.489 219.538 258.354 218.278Z" fill="#FBCC02"/>
<path d="M160.466 217.64C162.551 230.889 154.153 242.262 140.923 244.601C129.061 246.727 116.022 239.379 113.736 225.141C111.573 211.572 119.633 200.023 133.581 197.848C148.263 195.554 159.203 206.171 160.466 217.64Z" fill="#D55E14"/>
<path d="M143.813 237.799C141.182 239.177 138.294 239.437 135.409 239.633C129.796 240.065 128.088 238.902 126.373 233.663C124.277 227.236 128.049 219.158 134.123 215.971C143.183 211.234 150.782 215.707 154.208 220.245C156.865 223.796 155.642 227.237 153.33 230.37C150.881 233.716 147.836 236.367 143.846 237.769L143.813 237.799Z" fill="#FBCC02"/>
<path d="M303.315 133.608C303.444 134.752 302.879 135.291 301.801 135.361C300.881 135.439 300.372 134.907 300.261 134.017C300.1 132.871 300.697 132.334 301.774 132.264C302.694 132.186 303.172 132.716 303.315 133.608Z" fill="#FBCC02"/>
<path d="M353.2 133.614C353.456 135.965 352.555 137.497 350.199 137.847C347.875 138.199 346.415 137.112 346.097 134.758C345.798 132.626 346.787 131.225 348.894 130.798C351.225 130.32 352.623 131.373 353.2 133.614Z" fill="#FBCC02"/>
<path d="M352.004 126.295C352.004 126.295 352.277 126.499 352.398 126.6C352.244 126.529 352.092 126.426 351.969 126.356L351.973 126.293L352.004 126.295Z" fill="#FBCC02"/>
<path d="M434.738 367.256C433.228 366.321 432.765 365.319 434.456 364.015C435.308 363.378 436.038 362.554 436.809 361.815L437.007 361.793C438.255 362.988 439.874 363.108 441.463 363.311C443.093 363.53 444.541 364.181 445.765 365.249C446.728 366.054 447.923 367.135 447.182 368.312C446.099 370.029 445.111 368.192 444.209 367.671C442.378 366.642 440.625 365.332 438.488 366.947C437.243 367.036 435.97 367.138 434.725 367.227L434.738 367.256Z" fill="#D75E14"/>
<path d="M373.586 356.533C370.4 355.505 367.86 353.621 365.809 350.99C365.885 348.975 363.985 348.324 362.977 347.122C352.528 334.3 351.074 317.631 360.006 303.282C367.572 291.163 382.471 283.402 398.375 286.229C429.313 291.728 460.235 297.269 491.14 302.923C514.943 307.274 528.744 331.926 519.765 353.838C513.545 369.018 494.993 379.476 478.675 376.806C468.339 375.123 458.071 373.06 447.751 371.335C444.17 370.732 442.132 367.227 438.47 366.974C440.621 365.389 442.36 366.669 444.192 367.699C445.093 368.22 446.082 370.057 447.164 368.34C447.906 367.163 446.682 366.095 445.748 365.276C444.495 364.222 443.076 363.558 441.446 363.339C439.857 363.136 438.224 362.987 436.99 361.821C440.626 361.042 443.844 361.987 446.769 364.178C448.052 365.149 449.368 365.965 451.038 366.27C460.543 367.886 470.042 369.713 479.578 371.245C496.46 373.932 514.179 361.148 516.8 344.574C519.04 330.332 510.301 315.572 496.012 310.226C486.468 306.648 476.184 306.053 466.235 304.156C443.615 299.883 420.894 296.144 398.272 291.941C380.828 288.715 363.619 300.047 360.487 317.169C357.235 335.008 368.729 351.517 386.488 354.597C399.908 356.939 413.314 359.322 426.688 361.789C430.07 362.414 433.409 363.546 436.818 361.9C436.048 362.639 435.317 363.463 434.465 364.101C432.789 365.362 433.253 366.364 434.747 367.341C432.826 369.272 430.725 368.263 428.564 367.873C414.29 365.265 400.003 362.629 385.653 360.231C381.427 359.51 377.707 357.477 373.555 356.617L373.586 356.533Z" fill="#D75E14"/>
<path d="M436.983 361.81L436.785 361.832C433.389 363.507 430.079 362.362 426.655 361.722C413.281 359.255 399.875 356.871 386.455 354.53C368.696 351.449 357.202 334.94 360.454 317.102C363.585 299.979 380.795 288.648 398.239 291.874C420.861 296.076 443.611 299.802 466.202 304.088C476.151 305.985 486.435 306.58 495.979 310.159C510.268 315.505 519.007 330.264 516.767 344.507C514.16 361.109 496.427 373.864 479.545 371.177C470.009 369.645 460.523 367.847 451.005 366.202C449.348 365.926 448.032 365.11 446.736 364.111C443.839 361.906 440.593 360.974 436.957 361.753L436.983 361.81ZM467.42 351.276C465.497 354.181 466.546 359.153 469.4 360.891C472.268 362.657 476.997 361.686 478.773 358.988C480.592 356.235 479.764 351.44 477.112 349.539C474.35 347.549 469.271 348.439 467.407 351.248L467.42 351.276ZM512.173 338.256C509.451 336.353 505.123 337.139 503.248 339.848C501.373 342.557 502.13 346.898 504.839 348.773C507.548 350.648 511.89 349.891 513.765 347.182C515.668 344.459 514.882 340.131 512.186 338.285L512.173 338.256ZM419.181 314.682C417.07 317.709 417.566 320.433 420.676 322.574C423.399 324.478 427.198 323.902 428.899 321.343C430.66 318.687 429.864 315.162 427.086 313.215C424.046 311.076 421.363 311.587 419.181 314.682ZM391.648 323.456C389.095 321.543 386.458 321.929 384.658 324.499C382.874 327.028 383.142 329.336 385.596 331.26C387.816 332.978 391.268 332.702 392.896 330.663C394.452 328.692 393.841 325.117 391.648 323.456Z" fill="#FBCB03"/>
<path d="M467.451 351.263C469.315 348.455 474.394 347.565 477.156 349.554C479.808 351.455 480.636 356.25 478.816 359.004C477.041 361.702 472.34 362.659 469.444 360.906C466.59 359.168 465.57 354.183 467.464 351.291L467.451 351.263ZM471.037 353.531C469.963 354.966 470.094 356.226 471.587 357.274C473.05 358.334 474.286 358.075 475.305 356.596C476.22 355.269 476.1 354.108 474.804 353.109C473.398 352.022 472.155 352.041 471.037 353.531Z" fill="#D55E14"/>
<path d="M512.166 338.254C514.876 340.128 515.619 344.441 513.745 347.151C511.87 349.86 507.528 350.617 504.819 348.742C502.11 346.867 501.366 342.554 503.228 339.817C505.103 337.107 509.416 336.364 512.153 338.225L512.166 338.254ZM506.728 342.125C505.916 343.3 505.968 344.388 507.182 345.286C508.232 346.051 509.263 346.026 510.112 345.008C511.034 343.921 511.126 342.766 509.942 341.785C508.813 340.847 507.71 340.941 506.715 342.096L506.728 342.125Z" fill="#D55E14"/>
<path d="M419.208 314.675C421.39 311.58 424.073 311.069 427.113 313.208C429.891 315.155 430.7 318.708 428.926 321.336C427.226 323.895 423.426 324.471 420.703 322.567C417.593 320.426 417.084 317.673 419.208 314.675ZM424.736 316.184C423.978 315.596 423.183 315.756 422.434 316.693C421.611 317.768 421.711 318.66 422.844 319.457C423.812 320.122 424.605 320.033 425.34 319.067C426.163 317.991 426.063 317.099 424.708 316.197L424.736 316.184Z" fill="#D55E14"/>
<path d="M391.673 323.446C393.867 325.107 394.478 328.682 392.922 330.653C391.293 332.692 387.855 332.997 385.622 331.249C383.168 329.326 382.9 327.017 384.684 324.489C386.484 321.919 389.163 321.549 391.673 323.446Z" fill="#D55E14"/>
<path d="M506.755 342.109C507.75 340.953 508.867 340.889 509.982 341.798C511.166 342.779 511.074 343.934 510.152 345.021C509.289 346.01 508.272 346.064 507.222 345.298C506.008 344.4 505.956 343.312 506.768 342.137L506.755 342.109Z" fill="#FBCC02"/>
<path d="M471.126 353.479C472.321 352.049 473.574 352.125 474.91 353.255C476.152 354.32 476.211 355.486 475.228 356.763C474.133 358.187 472.885 358.38 471.479 357.245C470.073 356.109 469.979 354.855 471.126 353.479Z" fill="#FBCC02"/>
<path d="M424.812 316.239C426.119 317.211 426.143 318.119 425.294 319.138C424.538 320.052 423.712 320.111 422.781 319.397C421.703 318.571 421.638 317.646 422.516 316.615C423.283 315.73 424.115 315.601 424.841 316.227L424.812 316.239Z" fill="#FBCC02"/>
</svg>
