<svg width="51" height="41" viewBox="0 0 51 41" fill="none" xmlns="http://www.w3.org/2000/svg">
<path fill-rule="evenodd" clip-rule="evenodd" d="M36.1686 3.39535C32.3363 2.19924 28.4485 1.73599 23.4089 1.76184C23.2636 1.76259 23.119 1.81478 23.0053 1.90848L5.11657 16.6498L46.8061 8.37964C42.7978 6.02683 39.4871 4.43113 36.1686 3.39535ZM48.3415 9.87016L2.73907 18.9166V21.4604C2.73907 21.7281 2.94107 22.0636 3.37929 22.2709C5.01434 23.0443 6.00249 24.4379 6.00892 25.9796C6.01538 27.5293 5.03051 28.9548 3.29375 29.7932C2.89384 29.9863 2.70541 30.3049 2.70541 30.5662V37.6956C2.70541 38.1033 3.07577 38.4105 3.47621 38.3351L17.48 35.698C17.7619 35.645 18.0922 35.3308 18.2464 34.7273C19.1329 31.2574 23.6634 30.3129 25.8019 33.3144C26.1583 33.8145 26.5829 33.9813 26.8648 33.9235L47.9117 29.6044C48.2154 29.542 48.433 29.274 48.4315 28.9638L48.3415 9.87016ZM36.6928 1.71444C40.7369 2.9767 44.7114 5.01203 49.6755 8.04786L50.0942 8.30392L50.1916 28.9555C50.197 30.1049 49.3909 31.0983 48.2654 31.3293L27.2185 35.6484C25.9636 35.9059 24.9228 35.1143 24.3686 34.3364C23.1211 32.5854 20.4766 33.1089 19.9517 35.1633C19.7192 36.0735 19.0584 37.1926 17.8056 37.4285L3.8018 40.0656C2.31782 40.345 0.945312 39.2063 0.945312 37.6956V30.5662C0.945312 29.4557 1.69382 28.6105 2.52882 28.2074C3.79844 27.5945 4.25186 26.7119 4.24884 25.9869C4.24579 25.2541 3.77667 24.4066 2.62696 23.8628C1.78185 23.4631 0.978971 22.6128 0.978971 21.4604V17.7782L21.8863 0.549378C22.3111 0.199249 22.8473 0.00387835 23.3998 0.00104385C28.5605 -0.0254307 32.6389 0.449154 36.6928 1.71444Z" fill="url(#paint0_linear_291_396)"/>
<path fill-rule="evenodd" clip-rule="evenodd" d="M42.6543 22.8089C44.1507 22.8089 45.4231 21.5279 45.4231 19.8728C45.4231 18.2178 44.1507 16.9367 42.6543 16.9367C41.1578 16.9367 39.8854 18.2178 39.8854 19.8728C39.8854 21.5279 41.1578 22.8089 42.6543 22.8089ZM42.6543 23.5745C44.6061 23.5745 46.1884 21.9172 46.1884 19.8728C46.1884 17.8284 44.6061 16.1711 42.6543 16.1711C40.7024 16.1711 39.1201 17.8284 39.1201 19.8728C39.1201 21.9172 40.7024 23.5745 42.6543 23.5745Z" fill="url(#paint1_linear_291_396)"/>
<path fill-rule="evenodd" clip-rule="evenodd" d="M18.9876 22.8101C20.3737 22.8101 21.4535 21.7291 21.4535 20.449C21.4535 19.1688 20.3737 18.0878 18.9876 18.0878C17.6014 18.0878 16.5216 19.1688 16.5216 20.449C16.5216 21.7291 17.6014 22.8101 18.9876 22.8101ZM18.9876 23.5757C20.7721 23.5757 22.2188 22.1758 22.2188 20.449C22.2188 18.7221 20.7721 17.3223 18.9876 17.3223C17.203 17.3223 15.7563 18.7221 15.7563 20.449C15.7563 22.1758 17.203 23.5757 18.9876 23.5757Z" fill="#EA4335"/>
<path fill-rule="evenodd" clip-rule="evenodd" d="M33.3994 26.8511C34.324 26.8511 35.1249 26.062 35.1249 25.0239C35.1249 23.9858 34.324 23.1967 33.3994 23.1967C32.4748 23.1967 31.6739 23.9858 31.6739 25.0239C31.6739 26.062 32.4748 26.8511 33.3994 26.8511ZM33.3994 27.6167C34.775 27.6167 35.8901 26.4559 35.8901 25.0239C35.8901 23.592 34.775 22.4312 33.3994 22.4312C32.0238 22.4312 30.9087 23.592 30.9087 25.0239C30.9087 26.4559 32.0238 27.6167 33.3994 27.6167Z" fill="url(#paint2_linear_291_396)"/>
<path fill-rule="evenodd" clip-rule="evenodd" d="M11.3169 33.9908C11.9861 33.9908 12.5711 33.4228 12.5711 32.6687C12.5711 31.9147 11.9861 31.3466 11.3169 31.3466C10.6476 31.3466 10.0626 31.9147 10.0626 32.6687C10.0626 33.4228 10.6476 33.9908 11.3169 33.9908ZM11.3169 34.7564C12.4322 34.7564 13.3364 33.8217 13.3364 32.6687C13.3364 31.5157 12.4322 30.5811 11.3169 30.5811C10.2015 30.5811 9.29736 31.5157 9.29736 32.6687C9.29736 33.8217 10.2015 34.7564 11.3169 34.7564Z" fill="#BA8B01"/>
<path fill-rule="evenodd" clip-rule="evenodd" d="M33.7574 8.77462C33.0831 9.20648 32.1793 9.45856 31.2046 9.45856C30.23 9.45856 29.3262 9.20648 28.6518 8.77462C27.9826 8.34605 27.4854 7.69826 27.4854 6.91153C27.4854 6.1248 27.9826 5.47701 28.6518 5.04844C29.3262 4.61658 30.23 4.3645 31.2046 4.3645C32.1793 4.3645 33.0831 4.61658 33.7574 5.04844C34.4267 5.47701 34.9239 6.1248 34.9239 6.91153C34.9239 7.69826 34.4267 8.34605 33.7574 8.77462ZM31.2046 8.99921C33.0052 8.99921 34.4648 8.06453 34.4648 6.91153C34.4648 5.75853 33.0052 4.82385 31.2046 4.82385C29.4041 4.82385 27.9445 5.75853 27.9445 6.91153C27.9445 8.06453 29.4041 8.99921 31.2046 8.99921Z" fill="#34A853"/>
<path fill-rule="evenodd" clip-rule="evenodd" d="M20.6531 11.4043C20.2088 11.7278 19.6176 11.9137 18.9852 11.9137C18.3527 11.9137 17.7616 11.7278 17.3172 11.4043C16.8734 11.0811 16.5493 10.5957 16.5493 10.0152C16.5493 9.43478 16.8734 8.94934 17.3172 8.62617C17.7616 8.30268 18.3527 8.1167 18.9852 8.1167C19.6176 8.1167 20.2088 8.30268 20.6531 8.62617C21.0969 8.94934 21.421 9.43478 21.421 10.0152C21.421 10.5957 21.0969 11.0811 20.6531 11.4043ZM18.9852 11.4544C20.0769 11.4544 20.9618 10.8101 20.9618 10.0152C20.9618 9.22039 20.0769 8.57604 18.9852 8.57604C17.8935 8.57604 17.0085 9.22039 17.0085 10.0152C17.0085 10.8101 17.8935 11.4544 18.9852 11.4544Z" fill="#DA5C24"/>
<defs>
<linearGradient id="paint0_linear_291_396" x1="49.3511" y1="20.2083" x2="0.780267" y2="30.3694" gradientUnits="userSpaceOnUse">
<stop offset="0.0134064" stop-color="#4285F4"/>
<stop offset="0.260622" stop-color="#34A853"/>
<stop offset="0.439673" stop-color="#EA4335"/>
<stop offset="1" stop-color="#B98A00"/>
</linearGradient>
<linearGradient id="paint1_linear_291_396" x1="42.6543" y1="16.1711" x2="42.6543" y2="23.5745" gradientUnits="userSpaceOnUse">
<stop stop-color="#4285F4"/>
<stop offset="1" stop-color="#264D8E"/>
</linearGradient>
<linearGradient id="paint2_linear_291_396" x1="33.3994" y1="22.4312" x2="33.3994" y2="27.6167" gradientUnits="userSpaceOnUse">
<stop stop-color="#4285F4"/>
<stop offset="1" stop-color="#264D8E"/>
</linearGradient>
</defs>
</svg>
